<?xml version="1.0" standalone="no"?>
<!DOCTYPE svg PUBLIC "-//W3C//DTD SVG 20010904//EN"
 "http://www.w3.org/TR/2001/REC-SVG-20010904/DTD/svg10.dtd">
<svg version="1.0" xmlns="http://www.w3.org/2000/svg"
 width="169.000000pt" height="169.000000pt" viewBox="0 0 169.000000 169.000000"
 preserveAspectRatio="xMidYMid meet">
<metadata>
Created by potrace 1.14, written by Peter Selinger 2001-2017
</metadata>
<g transform="translate(0.000000,169.000000) scale(0.100000,-0.100000)"
fill="#000000" stroke="none">
<path d="M748 1685 c-1 -1 -24 -6 -49 -9 -61 -8 -160 -41 -233 -77 -414 -205
-584 -720 -374 -1134 185 -367 616 -550 1005 -426 262 84 460 280 551 546 28
84 33 115 37 240 8 225 -70 433 -225 599 -104 112 -282 215 -420 242 -86 18
-125 22 -200 22 -49 0 -90 -1 -92 -3z"/>
</g>
</svg>
